<svg width="138" height="134" viewBox="0 0 138 134" fill="none" xmlns="http://www.w3.org/2000/svg">
<path d="M36.4919 7.4641L122.706 57.24C124.619 58.3446 125.275 60.7909 124.17 62.7041L100.606 103.518C99.5018 105.431 97.0554 106.087 95.1423 104.982L8.92796 55.2063C7.01487 54.1018 6.35949 51.6553 7.46386 49.7422L31.0278 8.9282C32.1324 7.01504 34.5787 6.35953 36.4919 7.4641Z" fill="#D9D9D9" stroke="#00626C" stroke-width="8"/>
<circle cx="66.0428" cy="56.4177" r="17.4528" transform="rotate(30 66.0428 56.4177)" fill="#87C4CA" stroke="#00626C" stroke-width="4"/>
<path d="M132.832 72.1062L106.832 117.14C105.175 120.01 101.506 120.993 98.6359 119.336L8.92655 67.5428" stroke="#00626C" stroke-width="4"/>
<path d="M135.875 83.0847L109.874 128.119C108.217 130.989 104.548 131.972 101.678 130.315L11.9688 78.5213" stroke="#00626C" stroke-width="4"/>
</svg>
