<svg xmlns="http://www.w3.org/2000/svg" width="1300" height="308" viewBox="0 0 1300 308">
  <path
    fill="#ff0"
    d="M171.764 261.05c-11.604 8.134-27.819 7.083-38.186-3.242l-83.245-82.897c-11.574-11.526-11.574-30.374 0-41.9l83.245-82.897c10.337-10.324 26.582-11.375 38.186-3.241l26.222-26.112c1.145-1.14 2.38-2.16 3.556-3.211-28.03-24.401-70.737-23.381-97.41 3.211l-83.245 82.927c-27.85 27.733-27.85 72.844 0 100.575l83.244 82.898c26.704 26.593 69.412 27.613 97.411 3.213-1.206-1.051-2.411-2.073-3.556-3.213l-26.222-26.111ZM201.573 75.898l57.385 57.146c11.573 11.525 11.573 30.373 0 41.9l-57.385 57.145 25.89 25.781a30.493 30.493 0 0 0 3.888 3.242l57.053-56.816c27.85-27.733 27.85-72.843 0-100.576L231.35 46.905c-1.357.96-2.683 2.01-3.889 3.241l-25.89 25.782v-.03Z"
  />
  <path
    fill="#ff0"
    d="m382.228 103.685-83.245-82.897c-26.703-26.592-69.41-27.613-97.41-3.212 1.206 1.05 2.411 2.071 3.556 3.212L231.351 46.9c11.604-8.134 27.819-7.083 38.186 3.241l83.245 82.898c11.574 11.525 11.574 30.374 0 41.9l-83.245 82.897c-10.367 10.323-26.582 11.374-38.186 3.24l-26.222 26.113c-1.145 1.14-2.381 2.16-3.556 3.21 28.029 24.402 70.736 23.38 97.41-3.21l83.245-82.898c27.848-27.733 27.848-72.843 0-100.576v-.03ZM144.183 133.013l57.385-57.145-25.89-25.782a30.445 30.445 0 0 0-3.887-3.241l-57.054 56.815c-27.849 27.733-27.849 72.843 0 100.576l57.054 56.815c1.356-.96 2.682-2.01 3.887-3.241l25.89-25.781-57.385-57.146c-11.573-11.526-11.573-30.374 0-41.9v.03Z"
  />
  <path
    fill="#ff0"
    d="M171.768 46.865c1.357.96 2.683 2.011 3.888 3.242l25.89 25.782 25.889-25.782a30.652 30.652 0 0 1 3.888-3.242l-26.221-26.111c-1.146-1.14-2.38-2.161-3.557-3.212-1.205 1.05-2.41 2.071-3.556 3.212l-26.22 26.111ZM231.352 261.05c-1.355-.962-2.68-2.012-3.886-3.242l-25.891-25.782-25.89 25.782a30.53 30.53 0 0 1-3.887 3.242l26.22 26.111c1.146 1.14 2.382 2.162 3.557 3.21 1.205-1.048 2.412-2.07 3.558-3.21l26.22-26.111ZM475.064 21.877c0-5.042 3.104-7.744 7.384-7.744H595.74c52.563 0 89.936 48.322 89.936 96.014s-38.548 94.842-90.719 94.842h-63.443v89.082c0 5.042-2.714 7.741-7.776 7.741h-41.262c-5.063 0-7.384-2.7-7.384-7.741V21.877h-.03Zm56.45 41.479v92.742h52.956c25.709 0 43.61-21.94 43.61-45.981s-17.901-46.761-43.61-46.761h-52.955ZM784.567 111.034l-20.644 182.994c-.392 5.042-2.35 7.741-7.776 7.741h-39.724c-5.063 0-7.777-2.7-7.385-7.741l29.597-272.554c.393-4.652 2.712-7.744 8.169-7.744h50.602c4.28 0 5.457 2.311 7.024 6.993L867.39 212.63l61.815-191.515c1.959-5.043 3.496-7.354 7.384-7.354h51.78c5.064 0 7.775 2.702 8.168 7.744l29.205 272.553c.784 5.042-2.351 7.743-7.385 7.743h-39.722c-5.064 0-7.023-2.34-7.776-7.353l-19.862-183.383-59.466 177.95c-2.35 5.823-3.888 6.993-8.167 6.993h-32.7c-3.889 0-5.85-1.17-7.777-6.992l-58.29-177.95-.03-.03ZM1292.647 154.803h-52.503c-4.61 0-11.06 2.672-14.316 5.913l-32.04 31.904-1.144 1.141c-.874 1.11-1.446 2.521-1.446 4.052 0 3.661 2.983 6.603 6.63 6.603h52.352v35.656c-12.447 9.305-29.566 13.176-44.365 13.176-52.925.78-94.577-43.4-94.577-96.134s34.872-93.012 88.972-93.012c18.655 0 34.66 5.883 48.524 14.857l.452.36c2.019 1.561 3.135 2.041 4.55 2.281 2.23.39 4.371-.18 6.542-2.34l23.507-23.411 4.552-4.532c3.586-3.572 3.586-7.413 0-10.955l-.392-.42c-.36-.36-.844-.69-1.326-1.02-24.534-18.61-52.141-29.054-87.193-29.054-82.521 0-143.072 65.49-143.072 147.277s66.94 148.446 149.46 148.446c35.023 0 66.942-12.395 90.3-28.302 2.711-2.34 3.886-5.042 3.886-8.524V162.547c0-6.213-3.886-7.743-7.384-7.743h.03Z"
  />
</svg>